<mxfile host="65bd71144e" modified="2021-01-30T22:01:13.218Z" agent="5.0 (Macintosh; Intel Mac OS X 11_0_0) AppleWebKit/537.36 (KHTML, like Gecko) Code/1.52.1 Chrome/83.0.4103.122 Electron/9.3.5 Safari/537.36" version="13.10.0" etag="-E8TdfTZG0L5va9GLvOY" type="embed">
    <diagram id="Sh5g7aEeGuOg3xO6YmfV" name="Page-1">
        <mxGraphModel dx="1654" dy="1192" grid="1" gridSize="10" guides="1" tooltips="1" connect="1" arrows="0" fold="1" page="1" pageScale="1" pageWidth="1700" pageHeight="1100" math="0" shadow="0">
            <root>
                <mxCell id="0"/>
                <mxCell id="1" parent="0"/>
                <mxCell id="308" value="&lt;span style=&quot;font-size: 20px&quot;&gt;&lt;b&gt;Come, Share, and Learn&lt;/b&gt;&lt;/span&gt;&lt;br style=&quot;font-size: 14px&quot;&gt;&lt;br&gt;&lt;br&gt;&lt;br&gt;&lt;br&gt;&lt;br&gt;about your favorite furry friend" style="html=1;shadow=0;dashed=0;shape=mxgraph.bootstrap.rrect;rSize=5;strokeColor=#33A64C;html=1;whiteSpace=wrap;fillColor=#ffffff;fontColor=#33A64C;verticalAlign=bottom;align=left;spacing=20;spacingBottom=0;fontSize=14;" vertex="1" parent="1">
                    <mxGeometry x="150" y="10" width="420" height="275" as="geometry"/>
                </mxCell>
                <mxCell id="309" value="Dogstagram&amp;nbsp; &amp;nbsp; &amp;nbsp; &amp;nbsp; &amp;nbsp; &amp;nbsp; &amp;nbsp; &amp;nbsp; &amp;nbsp; &amp;nbsp; &amp;nbsp; &amp;nbsp; &amp;nbsp; &amp;nbsp; Sign Up&amp;nbsp; Log In&amp;nbsp;" style="html=1;shadow=0;dashed=0;shape=mxgraph.bootstrap.topButton;rSize=5;perimeter=none;whiteSpace=wrap;fillColor=#F7F7F7;strokeColor=#33A64C;fontColor=#6C767D;resizeWidth=1;fontSize=18;align=left;spacing=20;" vertex="1" parent="308">
                    <mxGeometry width="420" height="50" relative="1" as="geometry"/>
                </mxCell>
                <mxCell id="327" value="" style="edgeStyle=elbowEdgeStyle;elbow=vertical;endArrow=classic;html=1;entryX=0.617;entryY=-0.012;entryDx=0;entryDy=0;entryPerimeter=0;" edge="1" parent="308" target="318">
                    <mxGeometry width="50" height="50" relative="1" as="geometry">
                        <mxPoint x="80" y="280" as="sourcePoint"/>
                        <mxPoint x="150" y="306" as="targetPoint"/>
                    </mxGeometry>
                </mxCell>
                <mxCell id="312" value="" style="edgeStyle=elbowEdgeStyle;elbow=horizontal;endArrow=classic;html=1;" edge="1" parent="1">
                    <mxGeometry width="50" height="50" relative="1" as="geometry">
                        <mxPoint x="570" y="110" as="sourcePoint"/>
                        <mxPoint x="760" y="160" as="targetPoint"/>
                    </mxGeometry>
                </mxCell>
                <mxCell id="318" value="" style="html=1;shadow=0;dashed=0;shape=mxgraph.bootstrap.rrect;rSize=5;fillColor=#ffffff;strokeColor=#999999;" vertex="1" parent="1">
                    <mxGeometry x="170" y="310" width="220" height="260" as="geometry"/>
                </mxCell>
                <mxCell id="319" value="Email address" style="fillColor=none;strokeColor=none;align=left;spacing=20;fontSize=14;" vertex="1" parent="318">
                    <mxGeometry width="220" height="40" relative="1" as="geometry">
                        <mxPoint y="10" as="offset"/>
                    </mxGeometry>
                </mxCell>
                <mxCell id="320" value="email@example.com" style="html=1;shadow=0;dashed=0;shape=mxgraph.bootstrap.rrect;rSize=5;fillColor=none;strokeColor=#999999;align=left;spacing=15;fontSize=14;fontColor=#6C767D;" vertex="1" parent="318">
                    <mxGeometry width="180" height="30" relative="1" as="geometry">
                        <mxPoint x="20" y="50" as="offset"/>
                    </mxGeometry>
                </mxCell>
                <mxCell id="321" value="Password" style="fillColor=none;strokeColor=none;align=left;spacing=20;fontSize=14;" vertex="1" parent="318">
                    <mxGeometry width="220" height="40" relative="1" as="geometry">
                        <mxPoint y="90" as="offset"/>
                    </mxGeometry>
                </mxCell>
                <mxCell id="322" value="Password" style="html=1;shadow=0;dashed=0;shape=mxgraph.bootstrap.rrect;rSize=5;fillColor=none;strokeColor=#999999;align=left;spacing=15;fontSize=14;fontColor=#6C767D;" vertex="1" parent="318">
                    <mxGeometry width="180" height="30" relative="1" as="geometry">
                        <mxPoint x="20" y="130" as="offset"/>
                    </mxGeometry>
                </mxCell>
                <mxCell id="323" value="Remember me" style="html=1;shadow=0;dashed=0;shape=mxgraph.bootstrap.rrect;rSize=2;fillColor=#EDEDED;strokeColor=#999999;align=left;fontSize=14;fontColor=#000000;labelPosition=right;verticalLabelPosition=middle;verticalAlign=middle;spacingLeft=5;spacingTop=-2;gradientColor=#DEDEDE;" vertex="1" parent="318">
                    <mxGeometry width="10" height="10" relative="1" as="geometry">
                        <mxPoint x="20" y="180" as="offset"/>
                    </mxGeometry>
                </mxCell>
                <mxCell id="324" value="Sign in" style="html=1;shadow=0;dashed=0;shape=mxgraph.bootstrap.rrect;rSize=5;fillColor=#0085FC;strokeColor=none;align=center;fontSize=14;fontColor=#FFFFFF;" vertex="1" parent="318">
                    <mxGeometry width="70" height="40" relative="1" as="geometry">
                        <mxPoint x="20" y="210" as="offset"/>
                    </mxGeometry>
                </mxCell>
                <mxCell id="328" value="" style="html=1;shadow=0;dashed=0;shape=mxgraph.bootstrap.rrect;rSize=5;fillColor=#ffffff;strokeColor=#999999;" vertex="1" parent="1">
                    <mxGeometry x="760" y="10" width="220" height="345" as="geometry"/>
                </mxCell>
                <mxCell id="329" value="Email address" style="fillColor=none;strokeColor=none;align=left;spacing=20;fontSize=14;" vertex="1" parent="328">
                    <mxGeometry width="220" height="40" relative="1" as="geometry">
                        <mxPoint y="80" as="offset"/>
                    </mxGeometry>
                </mxCell>
                <mxCell id="330" value="email@example.com" style="html=1;shadow=0;dashed=0;shape=mxgraph.bootstrap.rrect;rSize=5;fillColor=none;strokeColor=#999999;align=left;spacing=15;fontSize=14;fontColor=#6C767D;" vertex="1" parent="328">
                    <mxGeometry width="180" height="30" relative="1" as="geometry">
                        <mxPoint x="20" y="120" as="offset"/>
                    </mxGeometry>
                </mxCell>
                <mxCell id="331" value="Password" style="fillColor=none;strokeColor=none;align=left;spacing=20;fontSize=14;" vertex="1" parent="328">
                    <mxGeometry width="220" height="40" relative="1" as="geometry">
                        <mxPoint y="150" as="offset"/>
                    </mxGeometry>
                </mxCell>
                <mxCell id="332" value="Password" style="html=1;shadow=0;dashed=0;shape=mxgraph.bootstrap.rrect;rSize=5;fillColor=none;strokeColor=#999999;align=left;spacing=15;fontSize=14;fontColor=#6C767D;" vertex="1" parent="328">
                    <mxGeometry width="180" height="30" relative="1" as="geometry">
                        <mxPoint x="20" y="190" as="offset"/>
                    </mxGeometry>
                </mxCell>
                <mxCell id="334" value="Sign Up" style="html=1;shadow=0;dashed=0;shape=mxgraph.bootstrap.rrect;rSize=5;fillColor=#0085FC;strokeColor=none;align=center;fontSize=14;fontColor=#FFFFFF;" vertex="1" parent="328">
                    <mxGeometry width="70" height="40" relative="1" as="geometry">
                        <mxPoint x="20" y="290" as="offset"/>
                    </mxGeometry>
                </mxCell>
                <mxCell id="337" value="Verify Password" style="fillColor=none;strokeColor=none;align=left;spacing=20;fontSize=14;" vertex="1" parent="328">
                    <mxGeometry x="-2.2737367544323206e-13" y="210" width="220" height="40" as="geometry"/>
                </mxCell>
                <mxCell id="338" value="Verify Password" style="html=1;shadow=0;dashed=0;shape=mxgraph.bootstrap.rrect;rSize=5;fillColor=none;strokeColor=#999999;align=left;spacing=15;fontSize=14;fontColor=#6C767D;" vertex="1" parent="328">
                    <mxGeometry x="19.999999999999773" y="250" width="180" height="30" as="geometry"/>
                </mxCell>
                <mxCell id="339" value="Full Name" style="fillColor=none;strokeColor=none;align=left;spacing=20;fontSize=14;" vertex="1" parent="328">
                    <mxGeometry x="-2.2737367544323206e-13" y="10" width="220" height="40" as="geometry"/>
                </mxCell>
                <mxCell id="340" value="Ex) John Smith" style="html=1;shadow=0;dashed=0;shape=mxgraph.bootstrap.rrect;rSize=5;fillColor=none;strokeColor=#999999;align=left;spacing=15;fontSize=14;fontColor=#6C767D;" vertex="1" parent="328">
                    <mxGeometry x="19.999999999999773" y="50" width="180" height="30" as="geometry"/>
                </mxCell>
                <mxCell id="341" value="" style="edgeStyle=elbowEdgeStyle;elbow=horizontal;endArrow=classic;html=1;exitX=1;exitY=1;exitDx=0;exitDy=0;" edge="1" parent="1" source="321">
                    <mxGeometry width="50" height="50" relative="1" as="geometry">
                        <mxPoint x="370" y="560" as="sourcePoint"/>
                        <mxPoint x="490" y="630" as="targetPoint"/>
                    </mxGeometry>
                </mxCell>
                <mxCell id="343" value="" style="edgeStyle=elbowEdgeStyle;elbow=vertical;endArrow=classic;html=1;" edge="1" parent="1">
                    <mxGeometry width="50" height="50" relative="1" as="geometry">
                        <mxPoint x="880" y="360" as="sourcePoint"/>
                        <mxPoint x="800" y="380" as="targetPoint"/>
                    </mxGeometry>
                </mxCell>
                <mxCell id="344" value="" style="html=1;shadow=0;dashed=0;shape=mxgraph.bootstrap.rrect;rSize=5;strokeColor=#33A64C;html=1;whiteSpace=wrap;fillColor=#ffffff;fontColor=#33A64C;verticalAlign=bottom;align=left;spacing=20;spacingBottom=0;fontSize=14;" vertex="1" parent="1">
                    <mxGeometry x="490" y="380" width="500" height="460" as="geometry"/>
                </mxCell>
                <mxCell id="345" value="Dogstagram&amp;nbsp; &amp;nbsp; &amp;nbsp; &amp;nbsp; &amp;nbsp; &amp;nbsp; &amp;nbsp; &amp;nbsp; &amp;nbsp; &amp;nbsp; &amp;nbsp; &amp;nbsp; &amp;nbsp; &amp;nbsp; &amp;nbsp; &amp;nbsp; &amp;nbsp; &amp;nbsp; &amp;nbsp; &amp;nbsp; &amp;nbsp; &amp;nbsp; Welcome, James&amp;nbsp;" style="html=1;shadow=0;dashed=0;shape=mxgraph.bootstrap.topButton;rSize=5;perimeter=none;whiteSpace=wrap;fillColor=#F7F7F7;strokeColor=#33A64C;fontColor=#6C767D;resizeWidth=1;fontSize=18;align=left;spacing=20;" vertex="1" parent="344">
                    <mxGeometry width="500" height="50" relative="1" as="geometry"/>
                </mxCell>
                <mxCell id="355" value="&lt;br&gt;&lt;br&gt;&lt;br&gt;Name: Poppy&lt;br&gt;Breed: Boston Terrier Mix&lt;br&gt;Age: 5&lt;br&gt;Temperament: Friendly with human, aggressive with animals&lt;br&gt;Tip/Advice: Very energetic dog&lt;br&gt;Extra Information: Poppy is a rescue dog and was never trained" style="html=1;shadow=0;dashed=0;shape=mxgraph.bootstrap.rrect;rSize=5;strokeColor=#DFDFDF;html=1;whiteSpace=wrap;fillColor=#ffffff;fontColor=#000000;verticalAlign=bottom;align=left;spacing=20;fontSize=14;" vertex="1" parent="344">
                    <mxGeometry x="124.25" y="67.08" width="255.75" height="382.92" as="geometry"/>
                </mxCell>
                <mxCell id="356" value="Image cap" style="html=1;shadow=0;dashed=0;shape=mxgraph.bootstrap.topButton;rSize=5;perimeter=none;whiteSpace=wrap;fillColor=#868E96;strokeColor=#DFDFDF;fontColor=#DEE2E6;resizeWidth=1;fontSize=18;" vertex="1" parent="355">
                    <mxGeometry width="250" height="180" relative="1" as="geometry"/>
                </mxCell>
                <mxCell id="347" value="" style="shape=mxgraph.signs.animals.dog_on_leash;html=1;pointerEvents=1;fillColor=#000000;strokeColor=none;verticalLabelPosition=bottom;verticalAlign=top;align=center;" vertex="1" parent="355">
                    <mxGeometry x="57.74" y="14.73" width="142.26" height="144.83" as="geometry"/>
                </mxCell>
                <mxCell id="351" value="Jinhkim87" style="text;html=1;align=center;verticalAlign=middle;whiteSpace=wrap;rounded=0;fontColor=#000000;" vertex="1" parent="355">
                    <mxGeometry x="5.533631232361241" y="182.91874769593036" width="67.3659454374412" height="29.455384615384634" as="geometry"/>
                </mxCell>
                <mxCell id="350" value="Edit" style="html=1;shadow=0;dashed=0;shape=mxgraph.bootstrap.rrect;rSize=5;strokeColor=none;strokeWidth=1;fillColor=#0085FC;fontColor=#FFFFFF;whiteSpace=wrap;align=center;verticalAlign=middle;spacingLeft=0;fontStyle=0;fontSize=16;spacing=5;" vertex="1" parent="355">
                    <mxGeometry x="153.97930385700846" y="184.11" width="38.494825964252115" height="25.89" as="geometry"/>
                </mxCell>
                <mxCell id="349" value="Delete" style="html=1;shadow=0;dashed=0;shape=mxgraph.bootstrap.rrect;rSize=5;strokeColor=none;strokeWidth=1;fillColor=#DB2843;fontColor=#FFFFFF;whiteSpace=wrap;align=center;verticalAlign=middle;spacingLeft=0;fontStyle=0;fontSize=16;spacing=5;" vertex="1" parent="355">
                    <mxGeometry x="192.4741298212606" y="182.92" width="49.5620884289746" height="27.08" as="geometry"/>
                </mxCell>
                <mxCell id="358" value="New Post" style="html=1;shadow=0;dashed=0;shape=mxgraph.bootstrap.rrect;rSize=5;strokeColor=#33A64C;strokeWidth=1;fillColor=none;fontColor=#33A64C;whiteSpace=wrap;align=center;verticalAlign=middle;spacingLeft=0;fontStyle=0;fontSize=16;spacing=5;" vertex="1" parent="344">
                    <mxGeometry x="410" y="60" width="80" height="30" as="geometry"/>
                </mxCell>
                <mxCell id="370" value="One to Many" style="shape=ext;margin=3;double=1;whiteSpace=wrap;html=1;align=center;fillColor=#FFFFFF;fontColor=#000000;" vertex="1" parent="1">
                    <mxGeometry x="1040" y="230" width="100" height="40" as="geometry"/>
                </mxCell>
                <mxCell id="373" value="Many to Many" style="shape=ext;margin=3;double=1;whiteSpace=wrap;html=1;align=center;fillColor=#FFFFFF;fontColor=#000000;" vertex="1" parent="1">
                    <mxGeometry x="1050" y="557.5" width="100" height="40" as="geometry"/>
                </mxCell>
                <mxCell id="374" value="User" style="shape=table;startSize=30;container=1;collapsible=1;childLayout=tableLayout;fixedRows=1;rowLines=0;fontStyle=1;align=center;resizeLast=1;fillColor=#FFFFFF;fontColor=#000000;" vertex="1" parent="1">
                    <mxGeometry x="1190" y="70" width="180" height="160" as="geometry"/>
                </mxCell>
                <mxCell id="375" value="" style="shape=partialRectangle;collapsible=0;dropTarget=0;pointerEvents=0;fillColor=none;top=0;left=0;bottom=1;right=0;points=[[0,0.5],[1,0.5]];portConstraint=eastwest;" vertex="1" parent="374">
                    <mxGeometry y="30" width="180" height="30" as="geometry"/>
                </mxCell>
                <mxCell id="376" value="PK" style="shape=partialRectangle;connectable=0;fillColor=none;top=0;left=0;bottom=0;right=0;fontStyle=1;overflow=hidden;" vertex="1" parent="375">
                    <mxGeometry width="30" height="30" as="geometry"/>
                </mxCell>
                <mxCell id="377" value="UniqueID" style="shape=partialRectangle;connectable=0;fillColor=none;top=0;left=0;bottom=0;right=0;align=left;spacingLeft=6;fontStyle=5;overflow=hidden;" vertex="1" parent="375">
                    <mxGeometry x="30" width="150" height="30" as="geometry"/>
                </mxCell>
                <mxCell id="378" value="" style="shape=partialRectangle;collapsible=0;dropTarget=0;pointerEvents=0;fillColor=none;top=0;left=0;bottom=0;right=0;points=[[0,0.5],[1,0.5]];portConstraint=eastwest;" vertex="1" parent="374">
                    <mxGeometry y="60" width="180" height="30" as="geometry"/>
                </mxCell>
                <mxCell id="379" value="" style="shape=partialRectangle;connectable=0;fillColor=none;top=0;left=0;bottom=0;right=0;editable=1;overflow=hidden;" vertex="1" parent="378">
                    <mxGeometry width="30" height="30" as="geometry"/>
                </mxCell>
                <mxCell id="380" value="Name" style="shape=partialRectangle;connectable=0;fillColor=none;top=0;left=0;bottom=0;right=0;align=left;spacingLeft=6;overflow=hidden;" vertex="1" parent="378">
                    <mxGeometry x="30" width="150" height="30" as="geometry"/>
                </mxCell>
                <mxCell id="381" value="" style="shape=partialRectangle;collapsible=0;dropTarget=0;pointerEvents=0;fillColor=none;top=0;left=0;bottom=0;right=0;points=[[0,0.5],[1,0.5]];portConstraint=eastwest;" vertex="1" parent="374">
                    <mxGeometry y="90" width="180" height="30" as="geometry"/>
                </mxCell>
                <mxCell id="382" value="" style="shape=partialRectangle;connectable=0;fillColor=none;top=0;left=0;bottom=0;right=0;editable=1;overflow=hidden;" vertex="1" parent="381">
                    <mxGeometry width="30" height="30" as="geometry"/>
                </mxCell>
                <mxCell id="383" value="E-Mail" style="shape=partialRectangle;connectable=0;fillColor=none;top=0;left=0;bottom=0;right=0;align=left;spacingLeft=6;overflow=hidden;" vertex="1" parent="381">
                    <mxGeometry x="30" width="150" height="30" as="geometry"/>
                </mxCell>
                <mxCell id="384" value="" style="shape=partialRectangle;collapsible=0;dropTarget=0;pointerEvents=0;fillColor=none;top=0;left=0;bottom=0;right=0;points=[[0,0.5],[1,0.5]];portConstraint=eastwest;" vertex="1" parent="374">
                    <mxGeometry y="120" width="180" height="30" as="geometry"/>
                </mxCell>
                <mxCell id="385" value="" style="shape=partialRectangle;connectable=0;fillColor=none;top=0;left=0;bottom=0;right=0;editable=1;overflow=hidden;" vertex="1" parent="384">
                    <mxGeometry width="30" height="30" as="geometry"/>
                </mxCell>
                <mxCell id="386" value="Password" style="shape=partialRectangle;connectable=0;fillColor=none;top=0;left=0;bottom=0;right=0;align=left;spacingLeft=6;overflow=hidden;" vertex="1" parent="384">
                    <mxGeometry x="30" width="150" height="30" as="geometry"/>
                </mxCell>
                <mxCell id="387" value="Post" style="shape=table;startSize=30;container=1;collapsible=1;childLayout=tableLayout;fixedRows=1;rowLines=0;fontStyle=1;align=center;resizeLast=1;fillColor=#FFFFFF;fontColor=#000000;" vertex="1" parent="1">
                    <mxGeometry x="1190" y="277.5" width="180" height="300" as="geometry"/>
                </mxCell>
                <mxCell id="388" value="" style="shape=partialRectangle;collapsible=0;dropTarget=0;pointerEvents=0;fillColor=none;top=0;left=0;bottom=1;right=0;points=[[0,0.5],[1,0.5]];portConstraint=eastwest;" vertex="1" parent="387">
                    <mxGeometry y="30" width="180" height="30" as="geometry"/>
                </mxCell>
                <mxCell id="389" value="PK" style="shape=partialRectangle;connectable=0;fillColor=none;top=0;left=0;bottom=0;right=0;fontStyle=1;overflow=hidden;" vertex="1" parent="388">
                    <mxGeometry width="30" height="30" as="geometry"/>
                </mxCell>
                <mxCell id="390" value="UniqueID" style="shape=partialRectangle;connectable=0;fillColor=none;top=0;left=0;bottom=0;right=0;align=left;spacingLeft=6;fontStyle=5;overflow=hidden;" vertex="1" parent="388">
                    <mxGeometry x="30" width="150" height="30" as="geometry"/>
                </mxCell>
                <mxCell id="391" value="" style="shape=partialRectangle;collapsible=0;dropTarget=0;pointerEvents=0;fillColor=none;top=0;left=0;bottom=0;right=0;points=[[0,0.5],[1,0.5]];portConstraint=eastwest;" vertex="1" parent="387">
                    <mxGeometry y="60" width="180" height="30" as="geometry"/>
                </mxCell>
                <mxCell id="392" value="" style="shape=partialRectangle;connectable=0;fillColor=none;top=0;left=0;bottom=0;right=0;editable=1;overflow=hidden;" vertex="1" parent="391">
                    <mxGeometry width="30" height="30" as="geometry"/>
                </mxCell>
                <mxCell id="393" value="Picture" style="shape=partialRectangle;connectable=0;fillColor=none;top=0;left=0;bottom=0;right=0;align=left;spacingLeft=6;overflow=hidden;" vertex="1" parent="391">
                    <mxGeometry x="30" width="150" height="30" as="geometry"/>
                </mxCell>
                <mxCell id="394" value="" style="shape=partialRectangle;collapsible=0;dropTarget=0;pointerEvents=0;fillColor=none;top=0;left=0;bottom=0;right=0;points=[[0,0.5],[1,0.5]];portConstraint=eastwest;" vertex="1" parent="387">
                    <mxGeometry y="90" width="180" height="30" as="geometry"/>
                </mxCell>
                <mxCell id="395" value="" style="shape=partialRectangle;connectable=0;fillColor=none;top=0;left=0;bottom=0;right=0;editable=1;overflow=hidden;" vertex="1" parent="394">
                    <mxGeometry width="30" height="30" as="geometry"/>
                </mxCell>
                <mxCell id="396" value="Name" style="shape=partialRectangle;connectable=0;fillColor=none;top=0;left=0;bottom=0;right=0;align=left;spacingLeft=6;overflow=hidden;" vertex="1" parent="394">
                    <mxGeometry x="30" width="150" height="30" as="geometry"/>
                </mxCell>
                <mxCell id="397" value="" style="shape=partialRectangle;collapsible=0;dropTarget=0;pointerEvents=0;fillColor=none;top=0;left=0;bottom=0;right=0;points=[[0,0.5],[1,0.5]];portConstraint=eastwest;" vertex="1" parent="387">
                    <mxGeometry y="120" width="180" height="30" as="geometry"/>
                </mxCell>
                <mxCell id="398" value="" style="shape=partialRectangle;connectable=0;fillColor=none;top=0;left=0;bottom=0;right=0;editable=1;overflow=hidden;" vertex="1" parent="397">
                    <mxGeometry width="30" height="30" as="geometry"/>
                </mxCell>
                <mxCell id="399" value="Breed" style="shape=partialRectangle;connectable=0;fillColor=none;top=0;left=0;bottom=0;right=0;align=left;spacingLeft=6;overflow=hidden;" vertex="1" parent="397">
                    <mxGeometry x="30" width="150" height="30" as="geometry"/>
                </mxCell>
                <mxCell id="400" value="Temperament" style="shape=partialRectangle;connectable=0;fillColor=none;top=0;left=0;bottom=0;right=0;align=left;spacingLeft=6;overflow=hidden;" vertex="1" parent="1">
                    <mxGeometry x="1220" y="427.5" width="150" height="30" as="geometry"/>
                </mxCell>
                <mxCell id="401" value="Tip/Advice" style="shape=partialRectangle;connectable=0;fillColor=none;top=0;left=0;bottom=0;right=0;align=left;spacingLeft=6;overflow=hidden;" vertex="1" parent="1">
                    <mxGeometry x="1220" y="457.5" width="150" height="30" as="geometry"/>
                </mxCell>
                <mxCell id="402" value="Extra Info" style="shape=partialRectangle;connectable=0;fillColor=none;top=0;left=0;bottom=0;right=0;align=left;spacingLeft=6;overflow=hidden;" vertex="1" parent="1">
                    <mxGeometry x="1220" y="487.5" width="150" height="30" as="geometry"/>
                </mxCell>
                <mxCell id="403" value="Age" style="shape=partialRectangle;connectable=0;fillColor=none;top=0;left=0;bottom=0;right=0;align=left;spacingLeft=6;overflow=hidden;" vertex="1" parent="1">
                    <mxGeometry x="1220" y="517.5" width="150" height="30" as="geometry"/>
                </mxCell>
                <mxCell id="404" value="Comments" style="shape=table;startSize=30;container=1;collapsible=1;childLayout=tableLayout;fixedRows=1;rowLines=0;fontStyle=1;align=center;resizeLast=1;fillColor=#FFFFFF;fontColor=#000000;" vertex="1" parent="1">
                    <mxGeometry x="1190" y="617.5" width="180" height="160" as="geometry"/>
                </mxCell>
                <mxCell id="405" value="" style="shape=partialRectangle;collapsible=0;dropTarget=0;pointerEvents=0;fillColor=none;top=0;left=0;bottom=1;right=0;points=[[0,0.5],[1,0.5]];portConstraint=eastwest;" vertex="1" parent="404">
                    <mxGeometry y="30" width="180" height="30" as="geometry"/>
                </mxCell>
                <mxCell id="406" value="PK" style="shape=partialRectangle;connectable=0;fillColor=none;top=0;left=0;bottom=0;right=0;fontStyle=1;overflow=hidden;" vertex="1" parent="405">
                    <mxGeometry width="30" height="30" as="geometry"/>
                </mxCell>
                <mxCell id="407" value="UniqueID" style="shape=partialRectangle;connectable=0;fillColor=none;top=0;left=0;bottom=0;right=0;align=left;spacingLeft=6;fontStyle=5;overflow=hidden;" vertex="1" parent="405">
                    <mxGeometry x="30" width="150" height="30" as="geometry"/>
                </mxCell>
                <mxCell id="408" value="" style="shape=partialRectangle;collapsible=0;dropTarget=0;pointerEvents=0;fillColor=none;top=0;left=0;bottom=0;right=0;points=[[0,0.5],[1,0.5]];portConstraint=eastwest;" vertex="1" parent="404">
                    <mxGeometry y="60" width="180" height="30" as="geometry"/>
                </mxCell>
                <mxCell id="409" value="" style="shape=partialRectangle;connectable=0;fillColor=none;top=0;left=0;bottom=0;right=0;editable=1;overflow=hidden;" vertex="1" parent="408">
                    <mxGeometry width="30" height="30" as="geometry"/>
                </mxCell>
                <mxCell id="410" value="Response" style="shape=partialRectangle;connectable=0;fillColor=none;top=0;left=0;bottom=0;right=0;align=left;spacingLeft=6;overflow=hidden;" vertex="1" parent="408">
                    <mxGeometry x="30" width="150" height="30" as="geometry"/>
                </mxCell>
                <mxCell id="411" value="" style="shape=partialRectangle;collapsible=0;dropTarget=0;pointerEvents=0;fillColor=none;top=0;left=0;bottom=0;right=0;points=[[0,0.5],[1,0.5]];portConstraint=eastwest;" vertex="1" parent="404">
                    <mxGeometry y="90" width="180" height="30" as="geometry"/>
                </mxCell>
                <mxCell id="412" value="" style="shape=partialRectangle;connectable=0;fillColor=none;top=0;left=0;bottom=0;right=0;editable=1;overflow=hidden;" vertex="1" parent="411">
                    <mxGeometry width="30" height="30" as="geometry"/>
                </mxCell>
                <mxCell id="413" value="User Name" style="shape=partialRectangle;connectable=0;fillColor=none;top=0;left=0;bottom=0;right=0;align=left;spacingLeft=6;overflow=hidden;" vertex="1" parent="411">
                    <mxGeometry x="30" width="150" height="30" as="geometry"/>
                </mxCell>
                <mxCell id="414" value="" style="shape=partialRectangle;collapsible=0;dropTarget=0;pointerEvents=0;fillColor=none;top=0;left=0;bottom=0;right=0;points=[[0,0.5],[1,0.5]];portConstraint=eastwest;" vertex="1" parent="404">
                    <mxGeometry y="120" width="180" height="30" as="geometry"/>
                </mxCell>
                <mxCell id="415" value="" style="shape=partialRectangle;connectable=0;fillColor=none;top=0;left=0;bottom=0;right=0;editable=1;overflow=hidden;" vertex="1" parent="414">
                    <mxGeometry width="30" height="30" as="geometry"/>
                </mxCell>
                <mxCell id="416" value="Reaction" style="shape=partialRectangle;connectable=0;fillColor=none;top=0;left=0;bottom=0;right=0;align=left;spacingLeft=6;overflow=hidden;" vertex="1" parent="414">
                    <mxGeometry x="30" width="150" height="30" as="geometry"/>
                </mxCell>
                <mxCell id="417" value="Reaction" style="shape=partialRectangle;connectable=0;fillColor=none;top=0;left=0;bottom=0;right=0;align=left;spacingLeft=6;overflow=hidden;" vertex="1" parent="1">
                    <mxGeometry x="1220" y="547.5" width="150" height="30" as="geometry"/>
                </mxCell>
                <mxCell id="418" style="edgeStyle=orthogonalEdgeStyle;rounded=0;orthogonalLoop=1;jettySize=auto;html=1;exitX=0.75;exitY=0;exitDx=0;exitDy=0;entryX=0.733;entryY=0.138;entryDx=0;entryDy=0;entryPerimeter=0;fontColor=#000000;" edge="1" parent="1" source="404" target="404">
                    <mxGeometry relative="1" as="geometry"/>
                </mxCell>
                <mxCell id="419" value="" style="edgeStyle=entityRelationEdgeStyle;fontSize=12;html=1;endArrow=ERmany;startArrow=ERmany;exitX=1;exitY=0.25;exitDx=0;exitDy=0;" edge="1" parent="1" source="404">
                    <mxGeometry width="100" height="100" relative="1" as="geometry">
                        <mxPoint x="1190" y="647.5" as="sourcePoint"/>
                        <mxPoint x="1190" y="537.5" as="targetPoint"/>
                    </mxGeometry>
                </mxCell>
                <mxCell id="420" value="" style="edgeStyle=entityRelationEdgeStyle;fontSize=12;html=1;endArrow=ERoneToMany;" edge="1" parent="1">
                    <mxGeometry width="100" height="100" relative="1" as="geometry">
                        <mxPoint x="1370" y="190" as="sourcePoint"/>
                        <mxPoint x="1180" y="337.5" as="targetPoint"/>
                    </mxGeometry>
                </mxCell>
            </root>
        </mxGraphModel>
    </diagram>
</mxfile>